<?xml version="1.0" encoding="UTF-8"?>
<svg width="34px" height="33px" viewBox="0 0 34 33" version="1.1" xmlns="http://www.w3.org/2000/svg" xmlns:xlink="http://www.w3.org/1999/xlink">
    <!-- Generator: Sketch 64 (93537) - https://sketch.com -->
    <title>casegoods</title>
    <desc>Created with Sketch.</desc>
    <g id="Page-1" stroke="none" stroke-width="1" fill="none" fill-rule="evenodd">
        <g id="casegoods" fill="#6CB6A3" fill-rule="nonzero">
            <path d="M33.336,0 L0.664,0 C0.297,0 -6.62038927e-05,0.295 -6.62038927e-05,0.66 L-6.62038927e-05,15.18 C-6.62038927e-05,15.544 0.297,15.84 0.664,15.84 L2.48,15.84 L0.007,32.242 C-0.021,32.432 0.035,32.625 0.161,32.771 C0.287,32.916 0.471,33 0.664,33 L2.706,33 C2.989,33 3.241,32.821 3.334,32.555 L9.136,15.84 L24.864,15.84 L30.666,32.555 C30.759,32.821 31.011,33 31.294,33 L33.336,33 C33.529,33 33.713,32.916 33.839,32.77 C33.965,32.625 34.021,32.432 33.993,32.242 L31.52,15.84 L33.335,15.84 C33.702,15.84 33.999,15.544 33.999,15.18 L33.999,0.66 C33.999,0.295 33.702,0 33.335,0 L33.336,0 Z M2.233,31.68 L1.435,31.68 L3.822,15.84 L7.731,15.84 L2.233,31.68 Z M32.565,31.68 L31.767,31.68 L26.27,15.84 L30.179,15.84 L32.566,31.68 L32.565,31.68 Z M32.672,14.52 L1.328,14.52 L1.328,3.96 L32.672,3.96 L32.672,14.52 L32.672,14.52 Z M32.672,2.64 L1.328,2.64 L1.328,1.32 L32.672,1.32 L32.672,2.64 L32.672,2.64 Z" id="Shape"></path>
            <path d="M17,7 C15.897,7 15,7.897 15,9 C15,10.103 15.897,11 17,11 C18.103,11 19,10.103 19,9 C19,7.897 18.103,7 17,7 Z M17,9.667 C16.632,9.667 16.333,9.367 16.333,9 C16.333,8.633 16.633,8.333 17,8.333 C17.368,8.333 17.667,8.633 17.667,9 C17.667,9.368 17.367,9.667 17,9.667 Z M31.31,12 L26.69,12 C26.309,12 26,12.224 26,12.5 C26,12.776 26.309,13 26.69,13 L31.31,13 C31.691,13 32,12.776 32,12.5 C32,12.224 31.691,12 31.31,12 Z M24.512,12 L24.488,12 C24.218,12 24,12.224 24,12.5 C24,12.776 24.219,13 24.488,13 L24.512,13 C24.782,13 25,12.776 25,12.5 C25,12.224 24.781,12 24.512,12 Z M6.298,6 L3.702,6 C3.314,6 3,6.224 3,6.5 C3,6.776 3.314,7 3.702,7 L6.298,7 C6.686,7 7,6.776 7,6.5 C7,6.224 6.686,6 6.298,6 Z M7.512,6 L7.488,6 C7.218,6 7,6.224 7,6.5 C7,6.776 7.219,7 7.488,7 L7.512,7 C7.782,7 8,6.776 8,6.5 C8,6.224 7.781,6 7.512,6 Z" id="Shape"></path>
        </g>
    </g>
</svg>