<svg xmlns="http://www.w3.org/2000/svg" width="34" height="33" viewBox="0 0 34 33">
    <g fill="#313131">
        <path d="M33.336 0H.664C.297 0 0 .295 0 .66V15.18c0 .364.297.66.664.66H2.48L.007 32.242c-.028.19.028.383.154.529.126.145.31.229.503.229h2.042c.283 0 .535-.179.628-.445L9.136 15.84h15.728l5.802 16.715c.093.266.345.445.628.445h2.042c.193 0 .377-.084.503-.23.126-.145.182-.338.154-.528L31.52 15.84h1.815c.367 0 .664-.296.664-.66V.66c0-.365-.297-.66-.664-.66zM2.233 31.68h-.798l2.387-15.84h3.909L2.233 31.68zm30.332 0h-.798L26.27 15.84h3.909l2.387 15.84zm.107-17.16H1.328V3.96h31.344v10.56zm0-11.88H1.328V1.32h31.344v1.32z"/>
        <path d="M17 7c-1.103 0-2 .897-2 2s.897 2 2 2 2-.897 2-2-.897-2-2-2zm0 2.667c-.368 0-.667-.3-.667-.667 0-.367.3-.667.667-.667.368 0 .667.3.667.667 0 .368-.3.667-.667.667zM31.31 12h-4.62c-.381 0-.69.224-.69.5s.309.5.69.5h4.62c.381 0 .69-.224.69-.5s-.309-.5-.69-.5zM24.512 12h-.024c-.27 0-.488.224-.488.5s.219.5.488.5h.024c.27 0 .488-.224.488-.5s-.219-.5-.488-.5zM6.298 6H3.702C3.314 6 3 6.224 3 6.5s.314.5.702.5h2.596C6.686 7 7 6.776 7 6.5S6.686 6 6.298 6zM7.512 6h-.024C7.218 6 7 6.224 7 6.5s.219.5.488.5h.024C7.782 7 8 6.776 8 6.5S7.781 6 7.512 6z"/>
    </g>
</svg>
