<?xml version="1.0" encoding="UTF-8"?>
<svg viewBox="0 0 24 24" xmlns="http://www.w3.org/2000/svg">
<g fill="#FFF">
<path d="M21.2 0a2.8 2.8 0 0 0-2.768 2.4H14.8a.4.4 0 1 0 0 .8h3.6v15.6a.4.4 0 1 0 .8 0 2 2 0 1 1 4 0v.084a1.92 1.92 0 0 1-1.916 1.916H5.6V3.2h3.6a.4.4 0 1 0 0-.8H5.6v-2a.4.4 0 0 0-.4-.4H.4a.4.4 0 0 0-.4.4v23.2c0 .22.18.4.4.4h4.8a.4.4 0 0 0 .4-.4v-2h15.684A2.72 2.72 0 0 0 24 18.882V2.8A2.803 2.803 0 0 0 21.2 0zM4.8 23.2h-4V22h1.6v-.8H.8v-.8h.8v-.8H.8v-.8h1.6V18H.8v-.8h.8v-.8H.8v-.8h1.6v-.8H.8V14h.8v-.8H.8v-.8h1.6v-.8H.8v-.8h.8V10H.8v-.8h1.6v-.8H.8v-.8h.8v-.8H.8V6h1.6v-.8H.8v-.8h.8v-.8H.8v-.8h1.6V2H.8V.8h4v22.4zm18.4-6.36a2.796 2.796 0 0 0-4 0V2.8a2 2 0 1 1 4 0v14.04z"/>
<path d="M12.164 17.773A.373.373 0 0 0 12.5 18a.373.373 0 0 0 .336-.227l1.125-2.454a.44.44 0 0 0 .039-.183v-13.5C14 .733 13.328 0 12.5 0S11 .733 11 1.636v13.5a.44.44 0 0 0 .04.183l1.124 2.454zm.711-3.674v-9.19h.375v9.463l-.375-.273zm-.75 0l-.375.273V4.909h.375v9.19zM13.25 4.091h-1.5v-.818h1.5v.818zm-.75 12.585l-.642-1.4.642-.467.642.466-.642 1.4zm-.75-15.04c0-.452.336-.818.75-.818s.75.366.75.818v.818h-1.5v-.818zM8 19.5c0 .276.168.5.375.5h8.25c.207 0 .375-.224.375-.5s-.168-.5-.375-.5h-8.25c-.207 0-.375.224-.375.5z"/>
</g>
</svg>
