<?xml version="1.0" encoding="UTF-8"?>
<svg viewBox="0 0 23 25" xmlns="http://www.w3.org/2000/svg">
<g fill="#ffffff">
<path d="M18.071 0c-2.572 0-4.7 2.026-4.91 4.583H0V25h18.071C20.782 25 23 22.75 23 20V5c0-2.75-2.218-5-4.929-5zM.821 8.566l5.045-3.15H8.75L.821 10.109V8.566zm12.322 5.067l-1.498-.38 1.498-.869v1.249zm0-2.209l-2.65 1.536-2.16-.547 4.81-2.928v1.94zm0-2.911l-5.936 3.614-2.166-.549 8.102-5.005v1.94zm-.662 5.81l-2.389 1.441-9.27-2.743v-1.654l11.66 2.957zm-8.718 5.258L.82 18.46V16.4l5.386 1.707-2.444 1.475zM.82 15.526v-1.637l8.306 2.457-2.031 1.225.016-.05-6.29-1.995zm0 3.826l2.037.774L.82 21.354v-2.002zm0 2.971l12.322-7.429v1.953L.82 24.1v-1.776zm12.322-4.512v1.948L5.64 24.167H2.343l10.8-6.356zm0-12.213l-9.221 5.696-2.432-.617 8.89-5.26h2.763v.18zm-8.844-.181L.82 7.587v-2.17H4.3zm2.98 18.75l5.912-3.473a5.027 5.027 0 0 0 2.165 3.473H7.279zm10.792 0c-2.259 0-4.107-1.875-4.107-4.167s1.848-4.167 4.107-4.167c2.26 0 4.108 1.875 4.108 4.167s-1.849 4.167-4.108 4.167zm0-9.167c-1.709 0-3.222.895-4.107 2.245V5c0-2.292 1.848-4.167 4.107-4.167 2.26 0 4.108 1.875 4.108 4.167v12.245C21.294 15.895 19.78 15 18.07 15z"/>
<path d="m18 17c-1.671 0-3 1.329-3 3s1.329 3 3 3 3-1.329 3-3-1.329-3-3-3zm0 5.143c-1.2 0-2.143-0.943-2.143-2.143s0.943-2.143 2.143-2.143 2.143 0.943 2.143 2.143-0.943 2.143-2.143 2.143z"/>
</g>
</svg>
