<?xml version="1.0" encoding="UTF-8"?>
<svg viewBox="0 0 19 26" xmlns="http://www.w3.org/2000/svg">
<path d="M8.97.5c-.646 0-1.257.535-1.747.965-.1.087-.194.17-.282.242-.495.405-2.158 1.97-2.228 2.037l.005.005C3.709 4.76 2.886 6.606 2.437 9.01H1.94c-.902 0-1.441 2.03-1.441 3.99 0 1.963.539 3.992 1.441 3.992h.496c.45 2.405 1.274 4.253 2.283 5.262l-.005.005c.07.067 1.73 1.63 2.226 2.035.087.072.182.155.281.242.491.43 1.102.965 1.748.965.102 0 .318-.015.318-.015.141-.014 3.704-.591 3.704-.591C16.184 23.984 18.5 18.982 18.5 13c0-5.983-2.316-10.984-5.524-11.897 0 0-3.547-.575-3.69-.588 0 0-.214-.015-.316-.015zM2.346 16.365c.574-.607.904-2.124.904-3.605 0-1.482-.33-3-.904-3.606h3.435c.559 0 1.18 1.48 1.18 3.606 0 2.124-.621 3.605-1.18 3.605H2.346zM.5 12.76c0-2.125.608-3.606 1.154-3.606.546 0 1.154 1.48 1.154 3.606 0 2.124-.608 3.605-1.154 3.605-.546 0-1.154-1.48-1.154-3.605zm2.308 4.004h3.124c.89 0 1.422-2.036 1.422-4.004 0-1.968-.532-4.004-1.422-4.004H2.808C3.243 6.424 4.02 4.64 4.96 3.686l.2-.19c.439-.383.908-.592 1.392-.592 2.262 0 4.102 4.421 4.102 9.856 0 5.434-1.84 9.855-4.102 9.855-.485 0-.954-.21-1.393-.592l-.197-.187c-.94-.954-1.718-2.739-2.154-5.072zm4.677 7.354c-.102-.09-.198-.175-.288-.248a35.97 35.97 0 0 1-1.159-1.05c.185.054.371.087.56.087 2.436 0 4.417-4.552 4.417-10.147 0-5.596-1.981-10.148-4.417-10.148-.189 0-.375.033-.56.086A36.079 36.079 0 0 1 7.486 1.4C7.941.999 8.507.5 9.05.5c.097 0 .193.006.288.014l.419.067c3.097.694 5.512 5.89 5.512 12.179 0 6.288-2.415 11.484-5.512 12.178l-.418.067a3.199 3.199 0 0 1-.289.014c-.543 0-1.11-.5-1.565-.901zm5.202-22.815c3.05.868 5.351 5.896 5.351 11.697 0 5.8-2.3 10.83-5.336 11.694l-2.047.325c2.674-1.595 4.62-6.38 4.62-12.019 0-5.64-1.947-10.424-4.621-12.02l2.033.323z" fill="#FFF" stroke="#FFF" stroke-width=".75"/>
</svg>
