<?xml version="1.0" encoding="UTF-8"?>
<svg viewBox="0 0 25 29" xmlns="http://www.w3.org/2000/svg">
<g fill="#FFF">
<path d="M12.5 3c-.276 0-.5.339-.5.757v.486c0 .418.224.757.5.757s.5-.339.5-.757v-.486c0-.418-.224-.757-.5-.757zM12.5 19c-.276 0-.5.28-.5.624v.752c0 .344.224.624.5.624s.5-.28.5-.624v-.752c0-.344-.224-.624-.5-.624zM12.5 15c-.276 0-.5.28-.5.624v.752c0 .344.224.624.5.624s.5-.28.5-.624v-.752c0-.344-.224-.624-.5-.624zM12.5 7c-.276 0-.5.28-.5.624v.752c0 .344.224.624.5.624s.5-.28.5-.624v-.752C13 7.28 12.776 7 12.5 7zM12 11.624v.752c0 .344.224.624.5.624s.5-.28.5-.624v-.752c0-.345-.224-.624-.5-.624s-.5.28-.5.624zM12.5 23c-.276 0-.5.339-.5.757v.486c0 .418.224.757.5.757s.5-.339.5-.757v-.486c0-.418-.224-.757-.5-.757z"/>
<path d="M24.035 20.002c-2.194 0-3.978-2.552-3.978-5.69 0-3.139 1.784-5.692 3.978-5.692.35 0 .671-.19.842-.5a.986.986 0 0 0-.02-.987l-2.612-4.31a.958.958 0 0 0-1.505-.18 2.314 2.314 0 0 1-3.297 0 2.356 2.356 0 0 1-.682-1.667.971.971 0 0 0-.965-.976H9.204a.971.971 0 0 0-.965.976c0 .63-.243 1.222-.683 1.667a2.314 2.314 0 0 1-3.295 0 .959.959 0 0 0-1.506.18L.142 7.133a.986.986 0 0 0-.019.988c.17.308.493.5.842.5 2.194 0 3.978 2.552 3.978 5.69 0 3.139-1.784 5.691-3.978 5.691-.329 0-.635.17-.813.45a.986.986 0 0 0-.063.936L1.737 25c.18.394.594.62 1.018.557.068-.01 6.883-.986 8.824 2.906a.964.964 0 0 0 .853.537h.01c.357 0 .685-.2.852-.52 2.088-3.99 8.908-3.206 8.976-3.198a.962.962 0 0 0 .98-.533l1.648-3.334a.986.986 0 0 0-.042-.95.963.963 0 0 0-.821-.463zM21.853 24c-1.814-.107-6.767.011-9.421 3.1C10.389 24.722 7.21 24 4.943 24c-.577 0-1.569-.031-1.943 0l-1.263-2.585c1.083-.337 2.707-1.85 3.496-2.915 1.058-1.427 1.199-2.537 1.199-4.528 0-1.99-.43-3.07-1.489-4.497C4.192 8.46 2.76 7.356 1.737 7l2.007-3.217c1.62.902 3.124 1.386 4.495 0 .572-.58 1.12-1.68 1.298-2.458h6.259c.177.778.63 1.879 1.202 2.458 1.371 1.386 2.918 1.12 4.537.217l1.715 3.133c-1.023.357-2.442 1.328-3.193 2.342-1.059 1.427-1.38 3.06-1.38 5.051s.321 3.326 1.38 4.753c.779 1.052 2.125 1.794 3.193 2.136L21.853 24z"/>
</g>
</svg>
