<?xml version="1.0" encoding="UTF-8"?>
<svg viewBox="0 0 45 45" xmlns="http://www.w3.org/2000/svg">
<g fill="none" fill-rule="evenodd">
<g fill="#FFF" fill-rule="nonzero">
<path d="M27.374 10.928l-4.445 4.453A3.159 3.159 0 0 0 22 17.627c0 .483.108.95.311 1.373L31 10.317a3.172 3.172 0 0 0-3.626.611zM27.367 23a3.17 3.17 0 0 0 2.247-.928l4.455-4.448c.6-.6.931-1.396.931-2.244 0-.486-.11-.955-.316-1.38L26 22.691c.431.205.899.309 1.367.309zM17.368 21.93l-4.44 4.446A3.154 3.154 0 0 0 12 28.619c0 .487.11.956.316 1.381L21 21.323A3.15 3.15 0 0 0 19.608 21c-.846 0-1.642.33-2.24.93zM16.376 34c.813 0 1.626-.31 2.245-.93l4.45-4.454c.599-.6.929-1.399.929-2.248 0-.481-.107-.946-.309-1.368L15 33.686c.434.208.904.314 1.376.314zM25.192 18.31l-5.882 5.882a1.06 1.06 0 0 0 1.498 1.498l5.882-5.882a1.06 1.06 0 0 0-1.498-1.498zM17.655 27.345a1.177 1.177 0 0 0-1.664 0l-4.646 4.646a1.177 1.177 0 1 0 1.664 1.664l4.646-4.646c.46-.46.46-1.205 0-1.664zM34.655 10.345a1.177 1.177 0 0 0-1.664 0l-4.646 4.646a1.177 1.177 0 1 0 1.664 1.664l4.646-4.646c.46-.46.46-1.205 0-1.664z"/>
</g>
</g>
</svg>
