<?xml version="1.0" encoding="UTF-8"?>
<svg width="70px" height="40px" viewBox="0 0 70 40" version="1.1" xmlns="http://www.w3.org/2000/svg" xmlns:xlink="http://www.w3.org/1999/xlink">
    <!-- Generator: Sketch 64 (93537) - https://sketch.com -->
    <title>metal_btn</title>
    <desc>Created with Sketch.</desc>
    <g id="Page-1" stroke="none" stroke-width="1" fill="none" fill-rule="evenodd">
        <g id="metal_btn" fill="#4A4A4A" fill-rule="nonzero">
            <path d="M43.455,8 L2.545,8 C1.109,8 0,9.188 0,10.573 L0,13.41 C0,14.862 1.174,15.984 2.545,15.984 L6.542,15.984 L6.73,38.812 C6.73,39.472 6.851,40 7.504,40 C8.156,40 8.19,39.472 8.19,38.812 L8.19,15.984 L37.715,15.984 L37.715,38.812 C37.715,39.472 37.844,40 38.496,40 C39.149,40 39.266,39.472 39.266,38.812 L39.266,15.984 L43.456,15.984 C44.891,15.984 46,14.796 46,13.41 L46,10.573 C46,9.122 44.826,8 43.455,8 Z M43.651,13.41 C43.651,13.542 43.521,13.674 43.391,13.674 L2.544,13.674 C2.414,13.674 2.283,13.542 2.283,13.41 L2.283,10.573 C2.283,10.441 2.413,10.309 2.543,10.309 L43.39,10.309 C43.52,10.309 43.651,10.441 43.651,10.573 L43.651,13.41 L43.651,13.41 Z" id="Shape"></path>
            <path d="M69.77,1.368 C69.511,0.92 69.124,0.6 68.606,0.408 L67.572,0.088 C66.537,-0.232 65.438,0.344 65.115,1.368 L62.011,11.348 C61.882,11.859 61.882,12.371 62.141,12.818 C62.271,13.075 62.464,13.267 62.723,13.458 L60.913,19.152 L44.813,19.152 C43.455,19.152 42.356,20.303 42.356,21.647 L42.356,23.438 C42.356,24.845 43.456,25.933 44.813,25.933 L45.33,25.933 L41.063,37.448 C40.869,38.024 41.128,38.663 41.774,38.919 C41.904,38.983 42.036,39.023 42.162,38.983 C42.643,38.829 42.689,38.553 42.883,38.042 L47.191,25.932 L60.208,25.932 L64.687,38.215 C64.881,38.663 64.881,38.818 65.374,38.983 C65.499,39.025 65.632,38.983 65.761,38.919 C66.343,38.727 66.667,38.024 66.473,37.448 L62.14,25.869 C63.239,25.613 64.08,24.589 64.08,23.438 L64.08,21.647 C64.08,20.879 63.756,20.175 63.174,19.727 L64.984,14.162 C65.89,14.162 66.601,13.586 66.86,12.755 L69.963,2.775 C70.028,2.391 70.028,1.88 69.769,1.368 L69.77,1.368 Z M61.753,23.502 C61.753,23.63 61.688,23.758 61.623,23.758 L44.813,23.758 C44.748,23.822 44.683,23.694 44.683,23.566 L44.683,21.775 C44.683,21.647 44.748,21.519 44.813,21.519 L61.623,21.519 C61.688,21.519 61.753,21.583 61.753,21.711 L61.753,23.501 L61.753,23.502 Z M65.373,12.287 L63.608,11.75 L66.473,2.141 L68.606,2.775 L65.374,12.287 L65.373,12.287 Z" id="Shape"></path>
        </g>
    </g>
</svg>