<svg xmlns="http://www.w3.org/2000/svg" width="70" height="40" viewBox="0 0 70 40">
    <g fill="#313131">
        <path d="M43.455 8H2.545C1.109 8 0 9.188 0 10.573v2.837c0 1.452 1.174 2.574 2.545 2.574h3.997l.188 22.828c0 .66.121 1.188.774 1.188.652 0 .686-.528.686-1.188V15.984h29.525v22.828c0 .66.129 1.188.781 1.188.653 0 .77-.528.77-1.188V15.984h4.19c1.435 0 2.544-1.188 2.544-2.574v-2.837C46 9.122 44.826 8 43.455 8zm.196 5.41c0 .132-.13.264-.26.264H2.544c-.13 0-.261-.132-.261-.264v-2.837c0-.132.13-.264.26-.264H43.39c.13 0 .261.132.261.264v2.837z"/>
        <path d="M69.77 1.368C69.511.92 69.124.6 68.606.408l-1.034-.32c-1.035-.32-2.134.256-2.457 1.28l-3.104 9.98c-.129.511-.129 1.023.13 1.47.13.257.323.449.582.64l-1.81 5.694h-16.1c-1.358 0-2.457 1.151-2.457 2.495v1.791c0 1.407 1.1 2.495 2.457 2.495h.517l-4.267 11.515c-.194.576.065 1.215.711 1.471.13.064.262.104.388.064.481-.154.527-.43.721-.941l4.308-12.11h13.017l4.479 12.283c.194.448.194.603.687.768.125.042.258 0 .387-.064.582-.192.906-.895.712-1.471L62.14 25.869c1.099-.256 1.94-1.28 1.94-2.431v-1.791c0-.768-.324-1.472-.906-1.92l1.81-5.565c.906 0 1.617-.576 1.876-1.407l3.103-9.98c.065-.384.065-.895-.194-1.407zm-8.017 22.134c0 .128-.065.256-.13.256h-16.81c-.065.064-.13-.064-.13-.192v-1.791c0-.128.065-.256.13-.256H61.623c.065 0 .13.064.13.192v1.79zm3.62-11.215l-1.765-.537 2.865-9.609 2.133.634-3.232 9.512z"/>
    </g>
</svg>
