<svg xmlns="http://www.w3.org/2000/svg" width="65" height="70" viewBox="0 0 65 70">
    <g>
        <path d="M65 27.108c0-4.457-1.742-8.647-4.905-11.798L49.63 4.887C46.468 1.735 42.261 0 37.788 0H18.912c-.568 0-1.03.46-1.03 1.025 0 .567.462 1.026 1.03 1.026h16.56c4.3 0 7.798 3.484 7.798 7.767v5.352c0 3.571 2.917 6.477 6.502 6.477h5.372c4.29 0 7.783 3.47 7.797 7.741v34.134c0 2.441-1.993 4.427-4.443 4.427h-44.96c-2.029 0-3.779-1.345-4.295-3.286L9.2 58.338h33.384c4.532 0 8.219-3.672 8.219-8.186v-2.217c0-.566-.461-1.026-1.03-1.026-.568 0-1.03.46-1.03 1.026v2.217c0 3.383-2.762 6.136-6.159 6.136H5.685c-2 0-3.626-1.62-3.626-3.612V30.482c.984.814 2.248 1.305 3.626 1.305h36.898c3.397 0 6.16 2.753 6.16 6.136v5.91c0 .566.46 1.026 1.03 1.026.568 0 1.028-.46 1.028-1.026v-5.91c0-4.514-3.686-8.187-8.218-8.187H9.094V6.478c0-2.441 1.993-4.427 4.443-4.427h1.258c.57 0 1.03-.46 1.03-1.026C15.825.46 15.364 0 14.795 0h-1.258C9.952 0 7.036 2.906 7.036 6.478V20.46H5.685C2.55 20.461 0 23.001 0 26.124v26.552c0 3.122 2.55 5.662 5.685 5.662H7.14l.045 6.463c0 .078.01.155.028.231C7.915 67.957 10.515 70 13.537 70h44.961C62.083 70 65 67.094 65 63.522V27.108zM5.685 22.512h1.35v7.224h-1.35c-2 0-3.626-1.62-3.626-3.612 0-1.991 1.626-3.612 3.626-3.612zm49.46-2.916h-5.373c-2.45 0-4.444-1.986-4.444-4.426V9.818c0-2.771-1.158-5.277-3.017-7.064 2.188.702 4.192 1.917 5.864 3.583L58.64 16.76c1.672 1.666 2.892 3.663 3.596 5.842-1.793-1.852-4.31-3.006-7.09-3.006z"/>
        <path d="M41.022 38.622c.54 0 .978-.48.978-1.072 0-.591-.438-1.071-.978-1.071h-5.044c-.54 0-.978.48-.978 1.071v13.632c0 .592.438 1.072.978 1.072s.979-.48.979-1.072v-5.873h3.664c.54 0 .978-.48.978-1.072 0-.592-.437-1.071-.978-1.071h-3.664v-4.544h4.065zM23.024 36.479c-.272 0-.532.113-.725.314-.192.202-.3.475-.299.76V50.96c0 .083.01.164.027.242.006.278.113.543.302.74.192.199.451.31.722.31h.003c.112 0 2.739-.01 3.786-.03 1.818-.033 3.436-.894 4.558-2.425C32.43 48.387 33 46.458 33 44.366c0-4.717-2.526-7.887-6.286-7.887h-3.69zm7.928 7.887c0 3.32-1.706 5.67-4.148 5.714-.622.012-1.85.02-2.733.025-.005-1.563-.013-4.425-.013-5.754 0-1.111-.005-4.109-.008-5.729h2.664c2.049 0 4.238 1.51 4.238 5.744zM12.08 36.479c-.286 0-.562.113-.765.313-.201.2-.314.469-.315.75v13.647c0 .588.484 1.065 1.08 1.065.597 0 1.081-.477 1.081-1.065V46.32c.897-.005 2.14-.011 2.775-.011 2.792 0 5.064-2.205 5.064-4.916 0-2.71-2.272-4.915-5.064-4.915H12.08zm6.76 4.915c0 1.51-1.33 2.786-2.904 2.786-.631 0-1.857.006-2.754.011-.005-.907-.011-2.162-.011-2.797 0-.535-.004-1.842-.007-2.785h2.772c1.574 0 2.903 1.275 2.903 2.785z"/>
    </g>
</svg>
