<?xml version="1.0" encoding="UTF-8"?>
<svg width="28px" height="28px" viewBox="0 0 28 28" version="1.1" xmlns="http://www.w3.org/2000/svg" xmlns:xlink="http://www.w3.org/1999/xlink">
    <title>Pencil</title>
    <g id="Page-1" stroke="none" stroke-width="1" fill="none" fill-rule="evenodd">
        <g id="noun_Pencil_3267626" fill="#000000" fill-rule="nonzero">
            <path d="M27.0300552,3.26563536 L24.718895,0.954475138 C23.4457459,-0.317900552 21.3612155,-0.317900552 20.0880663,0.954475138 L2.21834254,18.8241989 C2.07447514,18.9688398 1.98475138,19.1467403 1.94917127,19.3331492 L0.0317127072,26.759337 C-0.154696133,27.4879558 0.51359116,28.1361326 1.22519337,27.9528177 L8.70939227,26.020663 C8.88651934,25.9750276 9.03889503,25.8853039 9.15878453,25.7638674 L27.0300552,7.89646409 C28.3024309,6.62331492 28.3024309,4.53878453 27.0300552,3.26563536 Z M19.1637569,7.43160221 L5.68895028,20.9064088 L4.30209945,19.519558 L17.7769061,6.04475138 L19.1637569,7.43160221 Z M7.07812155,22.2948066 L20.5529282,8.82 L21.939779,10.2068508 L8.46497238,23.6816575 L7.07812155,22.2948066 Z M23.3281768,8.81767956 L19.1653039,4.65480663 L21.4772376,2.34287293 C21.9885083,1.83082873 22.8169061,1.83082873 23.3289503,2.34287293 L25.6401105,4.65403315 C26.1521547,5.16607735 26.1521547,5.99447514 25.6401105,6.50574586 L23.3281768,8.81767956 Z M3.4319337,21.4277348 L6.5560221,24.5518232 L2.34519337,25.6385635 L3.4319337,21.4277348 Z" id="Shape"></path>
        </g>
    </g>
</svg>