<svg xmlns="http://www.w3.org/2000/svg" width="99" height="97" viewBox="0 0 99 97">
    <g fill="#9C9C9C">
        <path d="M73 24c-5.514 0-10 4.486-10 10s4.486 10 10 10 10-4.486 10-10-4.486-10-10-10zm0 16.12c-3.374 0-6.12-2.746-6.12-6.12s2.746-6.12 6.12-6.12 6.12 2.746 6.12 6.12-2.746 6.12-6.12 6.12zM73.846 86.235c-.05-.122-.112-.238-.184-.346-.072-.11-.156-.212-.248-.304s-.194-.176-.304-.248c-.108-.072-.224-.134-.346-.184-.12-.05-.246-.09-.374-.114-.258-.052-.522-.052-.78 0-.128.024-.254.064-.374.114-.122.05-.238.112-.346.184-.11.072-.212.156-.304.248s-.176.194-.248.304c-.072.108-.134.224-.184.346-.05.12-.09.246-.114.374-.026.128-.04.26-.04.39s.014.263.04.39c.024.129.064.255.114.375.05.122.112.238.184.346.072.11.156.212.248.304.046.046.094.09.145.13.05.042.104.082.159.118.108.072.224.134.346.184.12.05.246.09.374.114.128.026.26.04.39.04s.262-.014.39-.04c.128-.024.254-.064.374-.114.122-.05.238-.112.346-.184.055-.036.108-.076.16-.117.05-.042.098-.085.144-.131.092-.092.176-.194.248-.304.072-.108.134-.224.184-.346.05-.12.09-.246.116-.374.026-.128.038-.26.038-.39s-.012-.263-.038-.39c-.026-.129-.066-.255-.116-.375zM42.846 9.235c-.05-.12-.112-.236-.184-.346-.072-.108-.156-.212-.248-.304s-.194-.176-.304-.248c-.108-.072-.224-.134-.346-.184-.12-.05-.246-.088-.374-.114-.258-.052-.522-.052-.78 0-.128.026-.254.064-.376.114-.12.05-.236.112-.344.184-.11.072-.212.156-.304.248s-.176.196-.25.304c-.072.11-.132.226-.182.346-.05.12-.09.246-.114.374-.026.13-.04.26-.04.391 0 .13.014.26.04.39.024.128.064.254.114.374s.11.236.182.346c.074.108.158.212.25.304s.194.176.304.248c.108.072.224.134.344.184.122.05.248.088.376.114.128.026.26.04.39.04s.262-.014.39-.04c.128-.026.254-.064.374-.114.122-.05.238-.112.346-.184.11-.072.212-.156.304-.248s.176-.196.248-.304c.072-.11.134-.226.184-.346.05-.12.09-.246.114-.374.026-.13.04-.26.04-.39 0-.131-.014-.261-.04-.391-.024-.128-.064-.254-.114-.374z"/>
        <path d="M88.197 8.556C87.037 3.657 82.627 0 77.377 0H16.71C7.496 0 0 7.492 0 16.7v60.637c0 6.022 4.818 10.938 10.803 11.107 1.16 4.899 5.57 8.556 10.82 8.556H87.88C94.012 97 99 92.014 99 85.886V19.663c0-6.022-4.818-10.938-10.803-11.107zm6.936 77.33c0 3.997-3.254 7.25-7.253 7.25H21.623c-3.096 0-5.743-1.95-6.782-4.684-.303-.798-.47-1.663-.47-2.566V75.633L36.552 38.04c.676-1.144 1.88-1.812 3.201-1.792 1.33.024 2.503.734 3.139 1.9l9.55 17.53 13.884 25.48c.351.644 1.015 1.009 1.7 1.009.313 0 .63-.076.923-.236.938-.51 1.284-1.685.774-2.622l-4.506-8.269c1.978.092 3.924-.549 5.473-1.833l8.696-7.21c1.394-1.156 3.454-1.105 4.79.119l.453.415 3.867 3.543 6.636 6.08v13.733zm0-18.977l-6.636-6.08-3.867-2.942c-2.52-1.054-5.515-.687-7.712 1.134l-8.696 7.21c-.956.793-2.205 1.113-3.425.879-1.22-.234-2.262-.995-2.856-2.085l-6.1-11.197-3.408-6.252-6.144-11.277c-1.31-2.405-3.729-3.87-6.468-3.916-2.74-.043-5.207 1.334-6.599 3.693L14.37 68.024V19.663c0-3.998 3.254-7.25 7.253-7.25H33.57c1.068 0 1.933-.865 1.933-1.932 0-1.068-.865-1.933-1.933-1.933H21.623c-6.132 0-11.12 4.986-11.12 11.115v64.895c-3.711-.314-6.636-3.431-6.636-7.22V16.7c0-7.078 5.761-12.836 12.843-12.836h60.667c3.096 0 5.743 1.95 6.782 4.683H49.04c-1.067 0-1.933.866-1.933 1.933 0 1.067.866 1.933 1.934 1.933h35.59l3.867.028c3.711.314 6.636 3.431 6.636 7.22V66.91z"/>
    </g>
</svg>
