<?xml version="1.0" encoding="UTF-8"?>
<svg viewBox="0 0 29 18" xmlns="http://www.w3.org/2000/svg">
<g fill="#FFF">
<path d="M26.97 7.63l-.751-2.947a.448.448 0 0 0 .36-.435v-.476c0-1.031-.856-1.87-1.908-1.87h-3.42V.92A.93.93 0 0 0 20.312 0H2.876a.93.93 0 0 0-.939.92V9a.45.45 0 0 0 .454.446c.251 0 .455-.2.455-.446V.92a.03.03 0 0 1 .03-.029h17.436a.03.03 0 0 1 .03.03V9a.45.45 0 0 0 .454.445c.251 0 .455-.2.455-.446v-.505H26.609c.66 0 1.22.425 1.411 1.01H26.61a.45.45 0 0 0-.455.446v.95c0 .77.639 1.396 1.423 1.396h.515v1.96h-1.187a2.877 2.877 0 0 0-2.718-1.9 2.877 2.877 0 0 0-2.718 1.9h-.219v-3.356a.45.45 0 0 0-.454-.446.45.45 0 0 0-.454.446v3.356h-9.42a2.877 2.877 0 0 0-2.718-1.9 2.877 2.877 0 0 0-2.718 1.9h-2.61a.03.03 0 0 1-.03-.03v-.98h1.967c.25 0 .454-.199.454-.445a.45.45 0 0 0-.454-.446H.454a.45.45 0 0 0-.454.446.45.45 0 0 0 .454.446h1.483v.98c0 .507.421.92.939.92h2.453l-.001.03c0 1.556 1.29 2.822 2.876 2.822 1.585 0 2.875-1.266 2.875-2.822v-.03h10.233l-.001.03c0 1.556 1.29 2.822 2.876 2.822 1.585 0 2.876-1.266 2.876-2.822l-.001-.03h1.484c.25 0 .454-.199.454-.445V9.951c0-1.174-.882-2.149-2.03-2.32zm-5.72-4.838h3.421c.551 0 1 .44 1 .98v.03h-4.42v-1.01zm0 4.812v-2.91h4.035l.742 2.91h-4.776zM8.205 17.109c-1.085 0-1.968-.866-1.968-1.93 0-1.065.883-1.931 1.968-1.931s1.967.866 1.967 1.93c0 1.065-.882 1.931-1.967 1.931zm15.983 0c-1.085 0-1.968-.866-1.968-1.93 0-1.065.883-1.931 1.968-1.931s1.968.866 1.968 1.93c0 1.065-.883 1.931-1.968 1.931zm3.905-5.703h-.515a.51.51 0 0 1-.514-.505v-.505h1.029v1.01z"/>
<path d="M8 14a1.001 1.001 0 0 0 0 2 1.001 1.001 0 0 0 0-2zM24 14a1.001 1.001 0 0 0 0 2 1.001 1.001 0 0 0 0-2zM18.587 13h-6.174c-.228 0-.413.224-.413.5s.185.5.413.5h6.174c.228 0 .413-.224.413-.5s-.185-.5-.413-.5zM7.527 11H1.473a.487.487 0 0 0-.473.5c0 .276.212.5.473.5h6.054A.487.487 0 0 0 8 11.5c0-.276-.212-.5-.473-.5zM14.879 5.126a.402.402 0 0 0-.585 0L10.618 8.96 8.706 6.965a.401.401 0 0 0-.585 0 .444.444 0 0 0 0 .61l2.205 2.299a.403.403 0 0 0 .584 0l3.969-4.138a.444.444 0 0 0 0-.61z"/>
</g>
</svg>
