<svg xmlns="http://www.w3.org/2000/svg" width="33" height="40" viewBox="0 0 33 40">
    <g fill="#313131">
        <path d="M0 18.18c0 1.787 1.141 3.373 2.88 4.062v1.686c-.54.232-.92.769-.92 1.393v3.353c0 .35.12.672.32.929-.2.257-.32.578-.32.929v2.682c0 .835.68 1.515 1.515 1.515h.577l.107 3.84v.01c.038.827.667 1.421 1.497 1.421.735 0 1.323-.492 1.453-1.226l.905-4.045h7.12c.323 0 .585-.263.585-.586 0-.324-.262-.586-.586-.586H3.475c-.186 0-.343-.157-.343-.343v-2.682c0-.186.157-.343.343-.343h26.05c.186 0 .343.157.343.343v2.682c0 .186-.157.343-.343.343H17.867c-.324 0-.586.262-.586.586 0 .323.262.586.586.586h7.12l.904 4.045c.13.735.718 1.226 1.453 1.226.83 0 1.46-.594 1.497-1.42v-.01l.107-3.841h.578c.835 0 1.514-.68 1.514-1.515v-2.682c0-.35-.12-.672-.32-.93.2-.256.32-.578.32-.928v-.31c0-.323-.262-.585-.586-.585-.324 0-.586.262-.586.586v.31c0 .185-.157.342-.342.342H3.475c-.186 0-.343-.157-.343-.343v-3.353c0-.185.155-.34.34-.342h26.057c.184.001.34.157.34.342v.31c0 .323.261.585.585.585.324 0 .586-.262.586-.586v-.31c0-.623-.38-1.16-.92-1.392v-1.686c1.739-.69 2.88-2.275 2.88-4.061 0-1.992-1.423-3.679-3.372-4.228l.773-4.798c.324-2.007-1.002-3.882-3.018-4.268-1.207-.23-2.22-.8-3.014-1.691-.777-.874-1.81-1.604-3.07-2.17-3.05-1.368-6.548-1.368-9.598 0-1.26.566-2.293 1.296-3.07 2.17-.793.891-1.807 1.46-3.015 1.691-2.015.386-3.34 2.26-3.017 4.268l.773 4.798C1.423 14.503 0 16.19 0 18.18zM6.813 34.73l-.85 3.803-.007.032c-.04.244-.224.27-.33.263-.105-.006-.283-.053-.296-.296l-.106-3.802h1.589zM27.67 38.53c-.013.243-.19.29-.296.296-.106.007-.29-.02-.33-.263l-.007-.032-.85-3.803h1.59l-.107 3.802zM6.295 23.806H4.052v-1.795c0-.517-.26-.974-.658-1.236-.53-.348-.847-.934-.847-1.567 0-1.034.84-1.875 1.874-1.875 1.173 0 1.874.975 1.874 1.918v4.555zm17.213 0H9.492v-.866c0-.525.427-.954.954-.954h12.108c.527 0 .954.428.954.954v.866zm0-5.625v2.86c-.297-.15-.627-.227-.954-.227H10.446c-.335 0-.666.082-.954.226v-2.86c0-1.581-.928-3.092-2.475-3.878L6.08 8.486c-.007-.043.024-.083.071-.091 2.013-.353 3.786-1.336 5.127-2.843.443-.498 1.074-.933 1.874-1.292 2.128-.955 4.57-.955 6.698 0 .8.36 1.43.794 1.872 1.292 1.341 1.507 3.114 2.49 5.127 2.843.047.008.078.048.07.091l-.937 5.816c-1.49.758-2.474 2.238-2.474 3.879zm6.098 2.594c-.391.258-.658.711-.658 1.236v1.795h-2.243v-4.555c0-1.2.953-1.918 1.874-1.918 1.033 0 1.874.841 1.874 1.874 0 .634-.316 1.22-.847 1.568zm2.222-2.594c0 .376-.07.741-.204 1.082.035-1.692-1.338-3.102-3.045-3.102-1.708 0-3.045 1.357-3.045 3.09v4.555h-.854V18.18c0-1.21.766-2.382 2.047-2.933 2.349-1.012 5.101.55 5.101 2.934zM5.837 6.038c1.466-.28 2.7-.975 3.67-2.063.666-.75 1.566-1.382 2.674-1.88 2.745-1.231 5.893-1.231 8.638 0 1.108.498 2.008 1.13 2.675 1.88.968 1.088 2.203 1.782 3.67 2.063 1.388.266 2.302 1.553 2.08 2.93l-.773 4.8c-.399-.017-.812.012-1.231.098l.837-5.193c.108-.672-.352-1.314-1.026-1.433-1.775-.31-3.273-1.14-4.454-2.467-.553-.622-1.316-1.154-2.267-1.581-2.433-1.093-5.225-1.093-7.658-.001-.952.427-1.715.96-2.27 1.582C9.223 6.099 7.725 6.929 5.95 7.24c-.674.119-1.134.761-1.026 1.433l.837 5.19c-.381-.076-.815-.113-1.231-.095l-.773-4.8c-.222-1.377.692-2.664 2.08-2.93zm-1.091 8.897c1.926 0 3.574 1.418 3.574 3.246v5.625h-.853v-4.555c0-1.733-1.338-3.09-3.046-3.09-1.68 0-3.046 1.367-3.046 3.046v.056c-.132-.341-.203-.706-.203-1.083 0-1.82 1.64-3.245 3.574-3.245z"/>
        <path d="M11.272 11.772h-.044v-.044c0-.402-.326-.728-.728-.728-.402 0-.728.326-.728.728v.044h-.044c-.402 0-.728.326-.728.728 0 .402.326.728.728.728h.044v.044c0 .402.326.728.728.728.402 0 .728-.326.728-.728v-.044h.044c.402 0 .728-.326.728-.728 0-.402-.326-.728-.728-.728zM17.272 11.772h-.044v-.044c0-.402-.326-.728-.728-.728-.402 0-.728.326-.728.728v.044h-.044c-.402 0-.728.326-.728.728 0 .402.326.728.728.728h.044v.044c0 .402.326.728.728.728.402 0 .728-.326.728-.728v-.044h.044c.402 0 .728-.326.728-.728 0-.402-.326-.728-.728-.728zM23.272 11.772h-.044v-.044c0-.402-.326-.728-.728-.728-.402 0-.728.326-.728.728v.044h-.044c-.402 0-.728.326-.728.728 0 .402.326.728.728.728h.044v.044c0 .402.326.728.728.728.402 0 .728-.326.728-.728v-.044h.044c.402 0 .728-.326.728-.728 0-.402-.326-.728-.728-.728zM14.272 16.772h-.044v-.044c0-.402-.326-.728-.728-.728-.402 0-.728.326-.728.728v.044h-.044c-.402 0-.728.326-.728.728 0 .402.326.728.728.728h.044v.044c0 .402.326.728.728.728.402 0 .728-.326.728-.728v-.044h.044c.402 0 .728-.326.728-.728 0-.402-.326-.728-.728-.728zM20.272 16.772h-.044v-.044c0-.402-.326-.728-.728-.728-.402 0-.728.326-.728.728v.044h-.044c-.402 0-.728.326-.728.728 0 .402.326.728.728.728h.044v.044c0 .402.326.728.728.728.402 0 .728-.326.728-.728v-.044h.044c.402 0 .728-.326.728-.728 0-.402-.326-.728-.728-.728zM14.272 7.772h-.044v-.044c0-.402-.326-.728-.728-.728-.402 0-.728.326-.728.728v.044h-.044c-.402 0-.728.326-.728.728 0 .402.326.728.728.728h.044v.044c0 .402.326.728.728.728.402 0 .728-.326.728-.728v-.044h.044c.402 0 .728-.326.728-.728 0-.402-.326-.728-.728-.728zM20.272 7.772h-.044v-.044c0-.402-.326-.728-.728-.728-.402 0-.728.326-.728.728v.044h-.044c-.402 0-.728.326-.728.728 0 .402.326.728.728.728h.044v.044c0 .402.326.728.728.728.402 0 .728-.326.728-.728v-.044h.044c.402 0 .728-.326.728-.728 0-.402-.326-.728-.728-.728z"/>
    </g>
</svg>
