<svg xmlns="http://www.w3.org/2000/svg" width="80" height="49" viewBox="0 0 80 49">
    <g fill="none" fill-rule="evenodd">
        <path fill="#6CB6A3" fill-rule="nonzero" d="M39.544 20.752l7.63 8.095c2.074 2.199-1.225 5.308-3.299 3.109L39.76 27.59l.058 4.887.11 9.23c.037 3.021-4.497 3.075-4.533.054l-.163-13.626-3.405 3.782c-2.022 2.247-5.392-.786-3.37-3.032l7.009-7.785c.219-.374.54-.65.91-.825.417-.238.858-.31 1.279-.258.628-.081 1.307.118 1.89.735z" transform="translate(3.166 2)"/>
        <path stroke="#6CB6A3" stroke-linecap="square" stroke-width="3" d="M49.33 44h15.158c6.348-1.05 9.786-5.483 10.312-13.3.526-7.819-5.143-12.084-17.007-12.795-1.63-4.84-3.696-8.165-6.2-9.978-2.502-1.814-6.39-2.51-11.66-2.087C36.752 1.398 31.98-.51 25.61.116c-9.184.902-16.393 10.73-16.86 16.346-11.29 9.51-11.655 18.042-1.1 25.598 1.431.765 2.485 1.255 3.164 1.47.521.166 1.444.323 2.767.47h12.029" transform="translate(3.166 2)"/>
    </g>
</svg>
