<?xml version="1.0" encoding="UTF-8"?>
<svg viewBox="0 0 22 29" xmlns="http://www.w3.org/2000/svg">
<g>
<path d="M9.578 28.085zM9.572 28.086l-.01.001.01-.001z"/>
<path d="M9.942 25.068V7.082c0-.227-.198-.41-.441-.41-.244 0-.442.183-.442.41v4.772C8.061 6.972 7.694 2.243 7.6.822h1.46v4.616c0 .227.197.41.44.41.244 0 .442-.183.442-.41V.41C9.942.184 9.744 0 9.5 0H.493C.249 0 .05.184.05.411v19.2c0 .227.198.41.442.41.243 0 .44-.183.44-.41V6.455c.884 2.938 1.995 9.273.69 20.789h-.69v-5.989c0-.227-.197-.41-.44-.41-.244 0-.442.183-.442.41v6.4c0 .227.198.411.442.411h3.26l5.802-.003a.462.462 0 0 0 .029-.004l.019-.004.02-.005a.528.528 0 0 0 .022-.007l.009-.002.006-.003a.44.44 0 0 0 .027-.01l.015-.007A.45.45 0 0 0 9.74 28l.017-.011a.396.396 0 0 0 .018-.013l.014-.011a.407.407 0 0 0 .03-.028l.017-.016.013-.015.013-.016.012-.018.01-.015a.39.39 0 0 0 .011-.02l.008-.015a.432.432 0 0 0 .01-.022l.005-.015a.366.366 0 0 0 .007-.022l.005-.017a.37.37 0 0 0 .01-.083l.001-.008v-2.587zm-6.57 2.176H2.51c.57-5.071.996-12.169-.04-18.069C1.91 5.99 1.152 4.457.933 4.06V.822h.434c.514.636 1.488 2.379 2.173 5.35.545 2.366.838 5.144.87 8.257.04 3.799-.31 8.109-1.04 12.815zm3.23 0c-.35-1.565-.647-3.929-.21-4.89.223.255.692.937 1.53 2.741.382.825.726 1.634.94 2.149h-2.26zm2.457-1.753c-.126-.283-.26-.58-.399-.875-1.34-2.86-1.863-3.156-2.247-3.209a.636.636 0 0 0-.593.234c-.94 1.157-.391 4.324-.119 5.603H4.263c.731-4.745 1.077-9.092 1.03-12.927-.04-3.18-.348-6.02-.918-8.44C3.746 3.205 2.937 1.629 2.42.822h2.363c.16 1.223.71 5.373 1.419 9.949 1.12 7.241 2.081 12.073 2.858 14.366v.354zm0-3.78C7.574 15.066 5.995 3.29 5.671.823h1.045c.112 1.718.654 8.756 2.343 14.813v6.077z" fill="#FFF"/>
<path d="M9.507 28.09a.74.74 0 0 0 .073-.004l-.076.004h.003z"/>
<path d="M21.554 0H15.269 12.447C12.2 0 12 .184 12 .41v27.18c0 .226.2.41.446.41h9.108c.246 0 .446-.184.446-.41v-5.83c0-.226-.2-.41-.446-.41-.247 0-.446.184-.446.41v5.42h-1.314c-.059-4.72.074-11.345.995-16.898.106-.641.214-1.211.319-1.715V20.12c0 .226.2.41.446.41s.446-.184.446-.41V5.287.41c0-.226-.2-.41-.446-.41zM15.42 8.178c.181 0 .35-.079.466-.22.153-.188.472-.58.183-4.2A78.768 78.768 0 0 0 15.774.82h.839c.215 1.473.935 7.276-.593 10.28-.246.483-.432.575-.485.57-.028-.003-.693-.11-1.724-3.165a37.629 37.629 0 0 1-.919-3.257v-1.12c.106.253.218.515.332.777 1.276 2.92 1.725 3.212 2.108 3.267a.63.63 0 0 0 .09.006zM12.892.82h1.985c.068.567.2 1.723.298 2.923.151 1.875.135 2.816.087 3.285-.536-.838-1.49-2.946-2.37-5.278V.82zm1.553 26.36h-1.553V13.872c.795 3.041 1.81 8.087 1.553 13.308zm.893 0c.209-4.336-.446-8.506-1.044-11.279-.613-2.839-1.27-4.765-1.402-5.138V8.55l.065.193c.566 1.68 1.36 3.622 2.474 3.742.04.005.079.007.118.007.496 0 .926-.35 1.279-1.044.788-1.55 1.13-3.894 1.015-6.967a35.825 35.825 0 0 0-.33-3.66h2.12a186.177 186.177 0 0 0-1.703 9.288c-.772 4.917-1.628 11.808-1.397 17.072h-1.195zm5.77-21.965c-.138.342-.676 1.802-1.19 4.878-.939 5.614-1.075 12.313-1.016 17.087h-1.476c-.418-9.3 2.61-23.984 3.115-26.36h.567v4.395z" fill="#FFF"/>
</g>
</svg>
